<?xml version="1.0" encoding="UTF-8"?><svg xmlns="http://www.w3.org/2000/svg" xmlns:xlink="http://www.w3.org/1999/xlink" stroke-dasharray="none" shape-rendering="auto" font-family="'Dialog'" width="960" text-rendering="auto" fill-opacity="1" contentScriptType="text/ecmascript" color-interpolation="auto" color-rendering="auto" preserveAspectRatio="xMidYMid meet" font-size="12" fill="black" stroke="black" image-rendering="auto" stroke-miterlimit="10" zoomAndPan="magnify" version="1.0" stroke-linecap="square" stroke-linejoin="miter" contentStyleType="text/css" font-style="normal" height="576" stroke-width="1" stroke-dashoffset="0" font-weight="normal" stroke-opacity="1">
<!--Generated by the Batik Graphics2D SVG Generator-->
<defs id="genericDefs"/>
<g>
<defs id="defs1">
<clipPath clipPathUnits="userSpaceOnUse" id="clipPath1">
<path d="M44 39 L817 39 L817 537 L44 537 L44 39 Z"/>
</clipPath>
<clipPath clipPathUnits="userSpaceOnUse" id="clipPath2">
<path d="M-1 -1 L961 -1 L961 577 L-1 577 L-1 -1 Z"/>
</clipPath>
<clipPath clipPathUnits="userSpaceOnUse" id="clipPath3">
<path d="M849 235 L957 235 L957 357 L849 357 L849 235 Z"/>
</clipPath>
</defs>
<g fill="white" text-rendering="geometricPrecision" font-family="'Segoe UI'" stroke-linejoin="round" stroke="white" stroke-width="0" stroke-miterlimit="0">
<rect x="45" y="40" clip-path="url(#clipPath1)" width="771" height="496" stroke="none"/>
</g>
<g stroke-linecap="butt" fill="rgb(204,204,204)" text-rendering="geometricPrecision" font-family="'Segoe UI'" stroke-dasharray="3,3" stroke="rgb(204,204,204)">
<line clip-path="url(#clipPath1)" fill="none" x1="45" x2="45" y1="40" y2="536"/>
<line clip-path="url(#clipPath1)" fill="none" x1="60" x2="60" y1="40" y2="536"/>
<line clip-path="url(#clipPath1)" fill="none" x1="75" x2="75" y1="40" y2="536"/>
<line clip-path="url(#clipPath1)" fill="none" x1="91" x2="91" y1="40" y2="536"/>
<line clip-path="url(#clipPath1)" fill="none" x1="106" x2="106" y1="40" y2="536"/>
<line clip-path="url(#clipPath1)" fill="none" x1="122" x2="122" y1="40" y2="536"/>
<line clip-path="url(#clipPath1)" fill="none" x1="137" x2="137" y1="40" y2="536"/>
<line clip-path="url(#clipPath1)" fill="none" x1="152" x2="152" y1="40" y2="536"/>
<line clip-path="url(#clipPath1)" fill="none" x1="168" x2="168" y1="40" y2="536"/>
<line clip-path="url(#clipPath1)" fill="none" x1="183" x2="183" y1="40" y2="536"/>
<line clip-path="url(#clipPath1)" fill="none" x1="199" x2="199" y1="40" y2="536"/>
<line clip-path="url(#clipPath1)" fill="none" x1="214" x2="214" y1="40" y2="536"/>
<line clip-path="url(#clipPath1)" fill="none" x1="230" x2="230" y1="40" y2="536"/>
<line clip-path="url(#clipPath1)" fill="none" x1="245" x2="245" y1="40" y2="536"/>
<line clip-path="url(#clipPath1)" fill="none" x1="260" x2="260" y1="40" y2="536"/>
<line clip-path="url(#clipPath1)" fill="none" x1="276" x2="276" y1="40" y2="536"/>
<line clip-path="url(#clipPath1)" fill="none" x1="291" x2="291" y1="40" y2="536"/>
<line clip-path="url(#clipPath1)" fill="none" x1="307" x2="307" y1="40" y2="536"/>
<line clip-path="url(#clipPath1)" fill="none" x1="322" x2="322" y1="40" y2="536"/>
<line clip-path="url(#clipPath1)" fill="none" x1="337" x2="337" y1="40" y2="536"/>
<line clip-path="url(#clipPath1)" fill="none" x1="353" x2="353" y1="40" y2="536"/>
<line clip-path="url(#clipPath1)" fill="none" x1="368" x2="368" y1="40" y2="536"/>
<line clip-path="url(#clipPath1)" fill="none" x1="384" x2="384" y1="40" y2="536"/>
<line clip-path="url(#clipPath1)" fill="none" x1="399" x2="399" y1="40" y2="536"/>
<line clip-path="url(#clipPath1)" fill="none" x1="415" x2="415" y1="40" y2="536"/>
<line clip-path="url(#clipPath1)" fill="none" x1="430" x2="430" y1="40" y2="536"/>
<line clip-path="url(#clipPath1)" fill="none" x1="445" x2="445" y1="40" y2="536"/>
<line clip-path="url(#clipPath1)" fill="none" x1="461" x2="461" y1="40" y2="536"/>
<line clip-path="url(#clipPath1)" fill="none" x1="476" x2="476" y1="40" y2="536"/>
<line clip-path="url(#clipPath1)" fill="none" x1="492" x2="492" y1="40" y2="536"/>
<line clip-path="url(#clipPath1)" fill="none" x1="507" x2="507" y1="40" y2="536"/>
<line clip-path="url(#clipPath1)" fill="none" x1="523" x2="523" y1="40" y2="536"/>
<line clip-path="url(#clipPath1)" fill="none" x1="538" x2="538" y1="40" y2="536"/>
<line clip-path="url(#clipPath1)" fill="none" x1="553" x2="553" y1="40" y2="536"/>
<line clip-path="url(#clipPath1)" fill="none" x1="569" x2="569" y1="40" y2="536"/>
<line clip-path="url(#clipPath1)" fill="none" x1="584" x2="584" y1="40" y2="536"/>
<line clip-path="url(#clipPath1)" fill="none" x1="600" x2="600" y1="40" y2="536"/>
<line clip-path="url(#clipPath1)" fill="none" x1="615" x2="615" y1="40" y2="536"/>
<line clip-path="url(#clipPath1)" fill="none" x1="630" x2="630" y1="40" y2="536"/>
<line clip-path="url(#clipPath1)" fill="none" x1="646" x2="646" y1="40" y2="536"/>
<line clip-path="url(#clipPath1)" fill="none" x1="661" x2="661" y1="40" y2="536"/>
<line clip-path="url(#clipPath1)" fill="none" x1="677" x2="677" y1="40" y2="536"/>
<line clip-path="url(#clipPath1)" fill="none" x1="692" x2="692" y1="40" y2="536"/>
<line clip-path="url(#clipPath1)" fill="none" x1="708" x2="708" y1="40" y2="536"/>
<line clip-path="url(#clipPath1)" fill="none" x1="723" x2="723" y1="40" y2="536"/>
<line clip-path="url(#clipPath1)" fill="none" x1="738" x2="738" y1="40" y2="536"/>
<line clip-path="url(#clipPath1)" fill="none" x1="754" x2="754" y1="40" y2="536"/>
<line clip-path="url(#clipPath1)" fill="none" x1="769" x2="769" y1="40" y2="536"/>
<line clip-path="url(#clipPath1)" fill="none" x1="785" x2="785" y1="40" y2="536"/>
<line clip-path="url(#clipPath1)" fill="none" x1="800" x2="800" y1="40" y2="536"/>
<line clip-path="url(#clipPath1)" fill="none" x1="45" x2="816" y1="536" y2="536"/>
<line clip-path="url(#clipPath1)" fill="none" x1="45" x2="816" y1="486" y2="486"/>
<line clip-path="url(#clipPath1)" fill="none" x1="45" x2="816" y1="436" y2="436"/>
<line clip-path="url(#clipPath1)" fill="none" x1="45" x2="816" y1="387" y2="387"/>
<line clip-path="url(#clipPath1)" fill="none" x1="45" x2="816" y1="337" y2="337"/>
<line clip-path="url(#clipPath1)" fill="none" x1="45" x2="816" y1="288" y2="288"/>
<line clip-path="url(#clipPath1)" fill="none" x1="45" x2="816" y1="238" y2="238"/>
<line clip-path="url(#clipPath1)" fill="none" x1="45" x2="816" y1="188" y2="188"/>
<line clip-path="url(#clipPath1)" fill="none" x1="45" x2="816" y1="139" y2="139"/>
<line clip-path="url(#clipPath1)" fill="none" x1="45" x2="816" y1="89" y2="89"/>
<line clip-path="url(#clipPath1)" fill="none" x1="45" x2="45" y1="536" y2="536" stroke-dasharray="none" stroke="rgb(0,0,139)"/>
<line clip-path="url(#clipPath1)" fill="none" x1="45" x2="45" y1="536" y2="536" stroke-dasharray="none" stroke="rgb(238,0,0)"/>
<line clip-path="url(#clipPath1)" fill="none" x1="45" x2="45" y1="536" y2="536" stroke-dasharray="none" stroke="rgb(0,100,0)"/>
<line clip-path="url(#clipPath1)" fill="none" x1="45" x2="45" y1="536" y2="536" stroke-dasharray="none" stroke="rgb(255,165,0)"/>
<line clip-path="url(#clipPath1)" fill="none" x1="45" x2="45" y1="536" y2="536" stroke-dasharray="none" stroke="green"/>
<line clip-path="url(#clipPath1)" fill="none" x1="45" x2="45" y1="536" y2="536" stroke-dasharray="none" stroke="rgb(169,169,169)"/>
<rect x="45" y="40" clip-path="url(#clipPath2)" fill="none" width="771" stroke-dasharray="none" height="496" stroke="black"/>
</g>
<g text-rendering="geometricPrecision" font-size="13" font-family="'Arial'" stroke-linecap="butt">
<text xml:space="preserve" x="403" y="12" clip-path="url(#clipPath2)" stroke="none">Izguba paketov (i=15, p=1)</text>
<rect x="850" y="236" clip-path="url(#clipPath3)" fill="white" width="105" height="119" stroke="none"/>
<line clip-path="url(#clipPath3)" fill="none" x1="856" x2="870" y1="248" y2="248" stroke="rgb(0,0,139)"/>
<rect x="860" y="245" clip-path="url(#clipPath3)" fill="rgb(0,0,139)" width="7" height="7" stroke="none"/>
<text x="872" font-size="11" y="252" clip-path="url(#clipPath3)" stroke="none" xml:space="preserve">Omrezje.router</text>
<line clip-path="url(#clipPath3)" fill="none" x1="856" x2="870" y1="267" y2="267" stroke="rgb(238,0,0)"/>
<circle clip-path="url(#clipPath3)" fill="rgb(238,0,0)" r="3" cx="863" cy="267" stroke="none"/>
<text x="872" font-size="11" y="271" clip-path="url(#clipPath3)" stroke="none" xml:space="preserve">Omrezje.router1</text>
<line clip-path="url(#clipPath3)" fill="none" x1="856" x2="870" y1="286" y2="286" stroke="rgb(0,100,0)"/>
<polygon fill="rgb(0,100,0)" clip-path="url(#clipPath3)" points=" 863 281 868 289 858 289 863 281" stroke="none"/>
<text x="872" font-size="11" y="290" clip-path="url(#clipPath3)" stroke="none" xml:space="preserve">Omrezje.router2</text>
<line clip-path="url(#clipPath3)" fill="none" x1="856" x2="870" y1="305" y2="305" stroke="rgb(255,165,0)"/>
<polygon fill="rgb(255,165,0)" clip-path="url(#clipPath3)" points=" 859 305 863 301 867 305 863 309 859 305" stroke="none"/>
<text x="872" font-size="11" y="309" clip-path="url(#clipPath3)" stroke="none" xml:space="preserve">Omrezje.router3</text>
<line clip-path="url(#clipPath3)" fill="none" x1="856" x2="870" y1="324" y2="324" stroke="green"/>
<line clip-path="url(#clipPath3)" fill="none" x1="860" x2="866" y1="321" y2="327" stroke="green"/>
<line clip-path="url(#clipPath3)" fill="none" x1="860" x2="866" y1="327" y2="321" stroke="green"/>
<text x="872" font-size="11" y="328" clip-path="url(#clipPath3)" stroke="none" xml:space="preserve">Omrezje.router4</text>
<line clip-path="url(#clipPath3)" fill="none" x1="856" x2="870" y1="343" y2="343" stroke="rgb(169,169,169)"/>
</g>
<g stroke-linecap="butt" font-size="11" fill="rgb(169,169,169)" text-rendering="geometricPrecision" font-family="'Arial'" stroke="rgb(169,169,169)" stroke-width="2">
<line clip-path="url(#clipPath3)" fill="none" x1="859" x2="867" y1="343" y2="343"/>
<line clip-path="url(#clipPath3)" fill="none" x1="863" x2="863" y1="339" y2="347"/>
<text x="872" y="347" clip-path="url(#clipPath3)" fill="black" stroke="none" xml:space="preserve">Omrezje.router5</text>
</g>
<g text-rendering="geometricPrecision" font-size="13" font-family="'Arial'" stroke-linecap="butt">
<line clip-path="url(#clipPath2)" fill="none" x1="45" x2="816" y1="38" y2="38"/>
<line clip-path="url(#clipPath2)" fill="none" x1="45" x2="816" y1="538" y2="538"/>
<text xml:space="preserve" x="409" y="572" clip-path="url(#clipPath2)" stroke="none">Cas (s)</text>
<line clip-path="url(#clipPath2)" fill="none" x1="45" x2="45" y1="34" y2="38"/>
<line clip-path="url(#clipPath2)" fill="none" x1="45" x2="45" y1="542" y2="538"/>
<text x="39" font-size="11" y="30" clip-path="url(#clipPath2)" stroke="none" xml:space="preserve">0.0</text>
<text x="39" font-size="11" y="554" clip-path="url(#clipPath2)" stroke="none" xml:space="preserve">0.0</text>
<line clip-path="url(#clipPath2)" fill="none" x1="60" x2="60" y1="36" y2="38"/>
<line clip-path="url(#clipPath2)" fill="none" x1="60" x2="60" y1="540" y2="538"/>
<line clip-path="url(#clipPath2)" fill="none" x1="75" x2="75" y1="36" y2="38"/>
<line clip-path="url(#clipPath2)" fill="none" x1="75" x2="75" y1="540" y2="538"/>
<line clip-path="url(#clipPath2)" fill="none" x1="91" x2="91" y1="36" y2="38"/>
<line clip-path="url(#clipPath2)" fill="none" x1="91" x2="91" y1="540" y2="538"/>
<line clip-path="url(#clipPath2)" fill="none" x1="106" x2="106" y1="36" y2="38"/>
<line clip-path="url(#clipPath2)" fill="none" x1="106" x2="106" y1="540" y2="538"/>
<line clip-path="url(#clipPath2)" fill="none" x1="122" x2="122" y1="34" y2="38"/>
<line clip-path="url(#clipPath2)" fill="none" x1="122" x2="122" y1="542" y2="538"/>
<text x="113" font-size="11" y="30" clip-path="url(#clipPath2)" stroke="none" xml:space="preserve">0.10</text>
<text x="113" font-size="11" y="554" clip-path="url(#clipPath2)" stroke="none" xml:space="preserve">0.10</text>
<line clip-path="url(#clipPath2)" fill="none" x1="137" x2="137" y1="36" y2="38"/>
<line clip-path="url(#clipPath2)" fill="none" x1="137" x2="137" y1="540" y2="538"/>
<line clip-path="url(#clipPath2)" fill="none" x1="152" x2="152" y1="36" y2="38"/>
<line clip-path="url(#clipPath2)" fill="none" x1="152" x2="152" y1="540" y2="538"/>
<line clip-path="url(#clipPath2)" fill="none" x1="168" x2="168" y1="36" y2="38"/>
<line clip-path="url(#clipPath2)" fill="none" x1="168" x2="168" y1="540" y2="538"/>
<line clip-path="url(#clipPath2)" fill="none" x1="183" x2="183" y1="36" y2="38"/>
<line clip-path="url(#clipPath2)" fill="none" x1="183" x2="183" y1="540" y2="538"/>
<line clip-path="url(#clipPath2)" fill="none" x1="199" x2="199" y1="34" y2="38"/>
<line clip-path="url(#clipPath2)" fill="none" x1="199" x2="199" y1="542" y2="538"/>
<text x="190" font-size="11" y="30" clip-path="url(#clipPath2)" stroke="none" xml:space="preserve">0.20</text>
<text x="190" font-size="11" y="554" clip-path="url(#clipPath2)" stroke="none" xml:space="preserve">0.20</text>
<line clip-path="url(#clipPath2)" fill="none" x1="214" x2="214" y1="36" y2="38"/>
<line clip-path="url(#clipPath2)" fill="none" x1="214" x2="214" y1="540" y2="538"/>
<line clip-path="url(#clipPath2)" fill="none" x1="230" x2="230" y1="36" y2="38"/>
<line clip-path="url(#clipPath2)" fill="none" x1="230" x2="230" y1="540" y2="538"/>
<line clip-path="url(#clipPath2)" fill="none" x1="245" x2="245" y1="36" y2="38"/>
<line clip-path="url(#clipPath2)" fill="none" x1="245" x2="245" y1="540" y2="538"/>
<line clip-path="url(#clipPath2)" fill="none" x1="260" x2="260" y1="36" y2="38"/>
<line clip-path="url(#clipPath2)" fill="none" x1="260" x2="260" y1="540" y2="538"/>
<line clip-path="url(#clipPath2)" fill="none" x1="276" x2="276" y1="34" y2="38"/>
<line clip-path="url(#clipPath2)" fill="none" x1="276" x2="276" y1="542" y2="538"/>
<text x="267" font-size="11" y="30" clip-path="url(#clipPath2)" stroke="none" xml:space="preserve">0.30</text>
<text x="267" font-size="11" y="554" clip-path="url(#clipPath2)" stroke="none" xml:space="preserve">0.30</text>
<line clip-path="url(#clipPath2)" fill="none" x1="291" x2="291" y1="36" y2="38"/>
<line clip-path="url(#clipPath2)" fill="none" x1="291" x2="291" y1="540" y2="538"/>
<line clip-path="url(#clipPath2)" fill="none" x1="307" x2="307" y1="36" y2="38"/>
<line clip-path="url(#clipPath2)" fill="none" x1="307" x2="307" y1="540" y2="538"/>
<line clip-path="url(#clipPath2)" fill="none" x1="322" x2="322" y1="36" y2="38"/>
<line clip-path="url(#clipPath2)" fill="none" x1="322" x2="322" y1="540" y2="538"/>
<line clip-path="url(#clipPath2)" fill="none" x1="337" x2="337" y1="36" y2="38"/>
<line clip-path="url(#clipPath2)" fill="none" x1="337" x2="337" y1="540" y2="538"/>
<line clip-path="url(#clipPath2)" fill="none" x1="353" x2="353" y1="34" y2="38"/>
<line clip-path="url(#clipPath2)" fill="none" x1="353" x2="353" y1="542" y2="538"/>
<text x="344" font-size="11" y="30" clip-path="url(#clipPath2)" stroke="none" xml:space="preserve">0.40</text>
<text x="344" font-size="11" y="554" clip-path="url(#clipPath2)" stroke="none" xml:space="preserve">0.40</text>
<line clip-path="url(#clipPath2)" fill="none" x1="368" x2="368" y1="36" y2="38"/>
<line clip-path="url(#clipPath2)" fill="none" x1="368" x2="368" y1="540" y2="538"/>
<line clip-path="url(#clipPath2)" fill="none" x1="384" x2="384" y1="36" y2="38"/>
<line clip-path="url(#clipPath2)" fill="none" x1="384" x2="384" y1="540" y2="538"/>
<line clip-path="url(#clipPath2)" fill="none" x1="399" x2="399" y1="36" y2="38"/>
<line clip-path="url(#clipPath2)" fill="none" x1="399" x2="399" y1="540" y2="538"/>
<line clip-path="url(#clipPath2)" fill="none" x1="415" x2="415" y1="36" y2="38"/>
<line clip-path="url(#clipPath2)" fill="none" x1="415" x2="415" y1="540" y2="538"/>
<line clip-path="url(#clipPath2)" fill="none" x1="430" x2="430" y1="34" y2="38"/>
<line clip-path="url(#clipPath2)" fill="none" x1="430" x2="430" y1="542" y2="538"/>
<text x="421" font-size="11" y="30" clip-path="url(#clipPath2)" stroke="none" xml:space="preserve">0.50</text>
<text x="421" font-size="11" y="554" clip-path="url(#clipPath2)" stroke="none" xml:space="preserve">0.50</text>
<line clip-path="url(#clipPath2)" fill="none" x1="445" x2="445" y1="36" y2="38"/>
<line clip-path="url(#clipPath2)" fill="none" x1="445" x2="445" y1="540" y2="538"/>
<line clip-path="url(#clipPath2)" fill="none" x1="461" x2="461" y1="36" y2="38"/>
<line clip-path="url(#clipPath2)" fill="none" x1="461" x2="461" y1="540" y2="538"/>
<line clip-path="url(#clipPath2)" fill="none" x1="476" x2="476" y1="36" y2="38"/>
<line clip-path="url(#clipPath2)" fill="none" x1="476" x2="476" y1="540" y2="538"/>
<line clip-path="url(#clipPath2)" fill="none" x1="492" x2="492" y1="36" y2="38"/>
<line clip-path="url(#clipPath2)" fill="none" x1="492" x2="492" y1="540" y2="538"/>
<line clip-path="url(#clipPath2)" fill="none" x1="507" x2="507" y1="34" y2="38"/>
<line clip-path="url(#clipPath2)" fill="none" x1="507" x2="507" y1="542" y2="538"/>
<text x="498" font-size="11" y="30" clip-path="url(#clipPath2)" stroke="none" xml:space="preserve">0.60</text>
<text x="498" font-size="11" y="554" clip-path="url(#clipPath2)" stroke="none" xml:space="preserve">0.60</text>
<line clip-path="url(#clipPath2)" fill="none" x1="523" x2="523" y1="36" y2="38"/>
<line clip-path="url(#clipPath2)" fill="none" x1="523" x2="523" y1="540" y2="538"/>
<line clip-path="url(#clipPath2)" fill="none" x1="538" x2="538" y1="36" y2="38"/>
<line clip-path="url(#clipPath2)" fill="none" x1="538" x2="538" y1="540" y2="538"/>
<line clip-path="url(#clipPath2)" fill="none" x1="553" x2="553" y1="36" y2="38"/>
<line clip-path="url(#clipPath2)" fill="none" x1="553" x2="553" y1="540" y2="538"/>
<line clip-path="url(#clipPath2)" fill="none" x1="569" x2="569" y1="36" y2="38"/>
<line clip-path="url(#clipPath2)" fill="none" x1="569" x2="569" y1="540" y2="538"/>
<line clip-path="url(#clipPath2)" fill="none" x1="584" x2="584" y1="34" y2="38"/>
<line clip-path="url(#clipPath2)" fill="none" x1="584" x2="584" y1="542" y2="538"/>
<text x="575" font-size="11" y="30" clip-path="url(#clipPath2)" stroke="none" xml:space="preserve">0.70</text>
<text x="575" font-size="11" y="554" clip-path="url(#clipPath2)" stroke="none" xml:space="preserve">0.70</text>
<line clip-path="url(#clipPath2)" fill="none" x1="600" x2="600" y1="36" y2="38"/>
<line clip-path="url(#clipPath2)" fill="none" x1="600" x2="600" y1="540" y2="538"/>
<line clip-path="url(#clipPath2)" fill="none" x1="615" x2="615" y1="36" y2="38"/>
<line clip-path="url(#clipPath2)" fill="none" x1="615" x2="615" y1="540" y2="538"/>
<line clip-path="url(#clipPath2)" fill="none" x1="630" x2="630" y1="36" y2="38"/>
<line clip-path="url(#clipPath2)" fill="none" x1="630" x2="630" y1="540" y2="538"/>
<line clip-path="url(#clipPath2)" fill="none" x1="646" x2="646" y1="36" y2="38"/>
<line clip-path="url(#clipPath2)" fill="none" x1="646" x2="646" y1="540" y2="538"/>
<line clip-path="url(#clipPath2)" fill="none" x1="661" x2="661" y1="34" y2="38"/>
<line clip-path="url(#clipPath2)" fill="none" x1="661" x2="661" y1="542" y2="538"/>
<text x="652" font-size="11" y="30" clip-path="url(#clipPath2)" stroke="none" xml:space="preserve">0.80</text>
<text x="652" font-size="11" y="554" clip-path="url(#clipPath2)" stroke="none" xml:space="preserve">0.80</text>
<line clip-path="url(#clipPath2)" fill="none" x1="677" x2="677" y1="36" y2="38"/>
<line clip-path="url(#clipPath2)" fill="none" x1="677" x2="677" y1="540" y2="538"/>
<line clip-path="url(#clipPath2)" fill="none" x1="692" x2="692" y1="36" y2="38"/>
<line clip-path="url(#clipPath2)" fill="none" x1="692" x2="692" y1="540" y2="538"/>
<line clip-path="url(#clipPath2)" fill="none" x1="708" x2="708" y1="36" y2="38"/>
<line clip-path="url(#clipPath2)" fill="none" x1="708" x2="708" y1="540" y2="538"/>
<line clip-path="url(#clipPath2)" fill="none" x1="723" x2="723" y1="36" y2="38"/>
<line clip-path="url(#clipPath2)" fill="none" x1="723" x2="723" y1="540" y2="538"/>
<line clip-path="url(#clipPath2)" fill="none" x1="738" x2="738" y1="34" y2="38"/>
<line clip-path="url(#clipPath2)" fill="none" x1="738" x2="738" y1="542" y2="538"/>
<text x="729" font-size="11" y="30" clip-path="url(#clipPath2)" stroke="none" xml:space="preserve">0.90</text>
<text x="729" font-size="11" y="554" clip-path="url(#clipPath2)" stroke="none" xml:space="preserve">0.90</text>
<line clip-path="url(#clipPath2)" fill="none" x1="754" x2="754" y1="36" y2="38"/>
<line clip-path="url(#clipPath2)" fill="none" x1="754" x2="754" y1="540" y2="538"/>
<line clip-path="url(#clipPath2)" fill="none" x1="769" x2="769" y1="36" y2="38"/>
<line clip-path="url(#clipPath2)" fill="none" x1="769" x2="769" y1="540" y2="538"/>
<line clip-path="url(#clipPath2)" fill="none" x1="785" x2="785" y1="36" y2="38"/>
<line clip-path="url(#clipPath2)" fill="none" x1="785" x2="785" y1="540" y2="538"/>
<line clip-path="url(#clipPath2)" fill="none" x1="800" x2="800" y1="36" y2="38"/>
<line clip-path="url(#clipPath2)" fill="none" x1="800" x2="800" y1="540" y2="538"/>
<line clip-path="url(#clipPath2)" fill="none" x1="43" x2="43" y1="40" y2="536"/>
<line clip-path="url(#clipPath2)" fill="none" x1="818" x2="818" y1="40" y2="536"/>
<line clip-path="url(#clipPath2)" fill="none" x1="39" x2="43" y1="536" y2="536"/>
<line clip-path="url(#clipPath2)" fill="none" x1="822" x2="818" y1="536" y2="536"/>
<text x="33" font-size="11" y="540" clip-path="url(#clipPath2)" stroke="none" xml:space="preserve">0</text>
<text x="825" font-size="11" y="540" clip-path="url(#clipPath2)" stroke="none" xml:space="preserve">0</text>
<line clip-path="url(#clipPath2)" fill="none" x1="41" x2="43" y1="486" y2="486"/>
<line clip-path="url(#clipPath2)" fill="none" x1="820" x2="818" y1="486" y2="486"/>
<line clip-path="url(#clipPath2)" fill="none" x1="39" x2="43" y1="436" y2="436"/>
<line clip-path="url(#clipPath2)" fill="none" x1="822" x2="818" y1="436" y2="436"/>
<text x="23" font-size="11" y="440" clip-path="url(#clipPath2)" stroke="none" xml:space="preserve">0.2</text>
<text x="825" font-size="11" y="440" clip-path="url(#clipPath2)" stroke="none" xml:space="preserve">0.2</text>
<line clip-path="url(#clipPath2)" fill="none" x1="41" x2="43" y1="387" y2="387"/>
<line clip-path="url(#clipPath2)" fill="none" x1="820" x2="818" y1="387" y2="387"/>
<line clip-path="url(#clipPath2)" fill="none" x1="39" x2="43" y1="337" y2="337"/>
<line clip-path="url(#clipPath2)" fill="none" x1="822" x2="818" y1="337" y2="337"/>
<text x="23" font-size="11" y="341" clip-path="url(#clipPath2)" stroke="none" xml:space="preserve">0.4</text>
<text x="825" font-size="11" y="341" clip-path="url(#clipPath2)" stroke="none" xml:space="preserve">0.4</text>
<line clip-path="url(#clipPath2)" fill="none" x1="41" x2="43" y1="288" y2="288"/>
<line clip-path="url(#clipPath2)" fill="none" x1="820" x2="818" y1="288" y2="288"/>
<line clip-path="url(#clipPath2)" fill="none" x1="39" x2="43" y1="238" y2="238"/>
<line clip-path="url(#clipPath2)" fill="none" x1="822" x2="818" y1="238" y2="238"/>
<text x="23" font-size="11" y="242" clip-path="url(#clipPath2)" stroke="none" xml:space="preserve">0.6</text>
<text x="825" font-size="11" y="242" clip-path="url(#clipPath2)" stroke="none" xml:space="preserve">0.6</text>
<line clip-path="url(#clipPath2)" fill="none" x1="41" x2="43" y1="188" y2="188"/>
<line clip-path="url(#clipPath2)" fill="none" x1="820" x2="818" y1="188" y2="188"/>
<line clip-path="url(#clipPath2)" fill="none" x1="39" x2="43" y1="139" y2="139"/>
<line clip-path="url(#clipPath2)" fill="none" x1="822" x2="818" y1="139" y2="139"/>
<text x="23" font-size="11" y="143" clip-path="url(#clipPath2)" stroke="none" xml:space="preserve">0.8</text>
<text x="825" font-size="11" y="143" clip-path="url(#clipPath2)" stroke="none" xml:space="preserve">0.8</text>
<line clip-path="url(#clipPath2)" fill="none" x1="41" x2="43" y1="89" y2="89"/>
<line clip-path="url(#clipPath2)" fill="none" x1="820" x2="818" y1="89" y2="89"/>
</g>
</g>
</svg>
