<?xml version="1.0" encoding="UTF-8"?><svg xmlns="http://www.w3.org/2000/svg" xmlns:xlink="http://www.w3.org/1999/xlink" stroke-dasharray="none" shape-rendering="auto" font-family="'Dialog'" width="960" text-rendering="auto" fill-opacity="1" contentScriptType="text/ecmascript" color-interpolation="auto" color-rendering="auto" preserveAspectRatio="xMidYMid meet" font-size="12" fill="black" stroke="black" image-rendering="auto" stroke-miterlimit="10" zoomAndPan="magnify" version="1.0" stroke-linecap="square" stroke-linejoin="miter" contentStyleType="text/css" font-style="normal" height="576" stroke-width="1" stroke-dashoffset="0" font-weight="normal" stroke-opacity="1">
<!--Generated by the Batik Graphics2D SVG Generator-->
<defs id="genericDefs"/>
<g>
<defs id="defs1">
<clipPath clipPathUnits="userSpaceOnUse" id="clipPath1">
<path d="M47 25 L929 25 L929 391 L47 391 L47 25 Z"/>
</clipPath>
<clipPath clipPathUnits="userSpaceOnUse" id="clipPath2">
<path d="M-1 -1 L961 -1 L961 577 L-1 577 L-1 -1 Z"/>
</clipPath>
<clipPath clipPathUnits="userSpaceOnUse" id="clipPath3">
<path d="M51 546 L910 546 L910 573 L51 573 L51 546 Z"/>
</clipPath>
<clipPath clipPathUnits="userSpaceOnUse" id="clipPath4">
<path d="M47 389 L929 389 L929 543 L47 543 L47 389 Z"/>
</clipPath>
</defs>
<g fill="white" text-rendering="geometricPrecision" font-family="'Segoe UI'" stroke-linejoin="round" stroke="white" stroke-width="0" stroke-miterlimit="0">
<rect x="48" y="26" clip-path="url(#clipPath1)" width="880" height="364" stroke="none"/>
</g>
<g stroke-linecap="butt" fill="rgb(204,204,204)" text-rendering="geometricPrecision" font-family="'Segoe UI'" stroke-dasharray="3,3" stroke="rgb(204,204,204)">
<line clip-path="url(#clipPath1)" fill="none" x1="48" x2="928" y1="390" y2="390"/>
<line clip-path="url(#clipPath1)" fill="none" x1="48" x2="928" y1="356" y2="356"/>
<line clip-path="url(#clipPath1)" fill="none" x1="48" x2="928" y1="322" y2="322"/>
<line clip-path="url(#clipPath1)" fill="none" x1="48" x2="928" y1="288" y2="288"/>
<line clip-path="url(#clipPath1)" fill="none" x1="48" x2="928" y1="254" y2="254"/>
<line clip-path="url(#clipPath1)" fill="none" x1="48" x2="928" y1="220" y2="220"/>
<line clip-path="url(#clipPath1)" fill="none" x1="48" x2="928" y1="186" y2="186"/>
<line clip-path="url(#clipPath1)" fill="none" x1="48" x2="928" y1="153" y2="153"/>
<line clip-path="url(#clipPath1)" fill="none" x1="48" x2="928" y1="119" y2="119"/>
<line clip-path="url(#clipPath1)" fill="none" x1="48" x2="928" y1="85" y2="85"/>
<line clip-path="url(#clipPath1)" fill="none" x1="48" x2="928" y1="51" y2="51"/>
<rect x="907" y="71" clip-path="url(#clipPath1)" fill="teal" width="10" height="318" stroke="none"/>
<rect x="907" y="71" clip-path="url(#clipPath1)" fill="none" width="10" stroke-dasharray="none" height="318"/>
<rect x="891" y="68" clip-path="url(#clipPath1)" fill="rgb(160,0,0)" width="10" stroke-dasharray="none" height="321" stroke="none"/>
<rect x="891" y="68" clip-path="url(#clipPath1)" fill="none" width="10" stroke-dasharray="none" height="321"/>
<rect x="876" y="76" clip-path="url(#clipPath1)" fill="rgb(169,169,169)" width="10" stroke-dasharray="none" height="313" stroke="none"/>
<rect x="876" y="76" clip-path="url(#clipPath1)" fill="none" width="10" stroke-dasharray="none" height="313"/>
<rect x="861" y="112" clip-path="url(#clipPath1)" fill="green" width="10" stroke-dasharray="none" height="277" stroke="none"/>
<rect x="861" y="112" clip-path="url(#clipPath1)" fill="none" width="10" stroke-dasharray="none" height="277"/>
<rect x="845" y="65" clip-path="url(#clipPath1)" fill="rgb(255,165,0)" width="10" stroke-dasharray="none" height="324" stroke="none"/>
<rect x="845" y="65" clip-path="url(#clipPath1)" fill="none" width="10" stroke-dasharray="none" height="324"/>
<rect x="830" y="62" clip-path="url(#clipPath1)" fill="rgb(0,100,0)" width="10" stroke-dasharray="none" height="327" stroke="none"/>
<rect x="830" y="62" clip-path="url(#clipPath1)" fill="none" width="10" stroke-dasharray="none" height="327"/>
<rect x="814" y="62" clip-path="url(#clipPath1)" fill="rgb(238,0,0)" width="10" stroke-dasharray="none" height="327" stroke="none"/>
<rect x="814" y="62" clip-path="url(#clipPath1)" fill="none" width="10" stroke-dasharray="none" height="327"/>
<rect x="799" y="80" clip-path="url(#clipPath1)" fill="rgb(0,0,139)" width="10" stroke-dasharray="none" height="309" stroke="none"/>
<rect x="799" y="80" clip-path="url(#clipPath1)" fill="none" width="10" stroke-dasharray="none" height="309"/>
<rect x="759" y="64" clip-path="url(#clipPath1)" fill="teal" width="10" stroke-dasharray="none" height="325" stroke="none"/>
<rect x="759" y="64" clip-path="url(#clipPath1)" fill="none" width="10" stroke-dasharray="none" height="325"/>
<rect x="743" y="60" clip-path="url(#clipPath1)" fill="rgb(160,0,0)" width="10" stroke-dasharray="none" height="329" stroke="none"/>
<rect x="743" y="60" clip-path="url(#clipPath1)" fill="none" width="10" stroke-dasharray="none" height="329"/>
<rect x="728" y="69" clip-path="url(#clipPath1)" fill="rgb(169,169,169)" width="10" stroke-dasharray="none" height="320" stroke="none"/>
<rect x="728" y="69" clip-path="url(#clipPath1)" fill="none" width="10" stroke-dasharray="none" height="320"/>
<rect x="712" y="68" clip-path="url(#clipPath1)" fill="green" width="10" stroke-dasharray="none" height="321" stroke="none"/>
<rect x="712" y="68" clip-path="url(#clipPath1)" fill="none" width="10" stroke-dasharray="none" height="321"/>
<rect x="697" y="62" clip-path="url(#clipPath1)" fill="rgb(255,165,0)" width="10" stroke-dasharray="none" height="327" stroke="none"/>
<rect x="697" y="62" clip-path="url(#clipPath1)" fill="none" width="10" stroke-dasharray="none" height="327"/>
<rect x="681" y="59" clip-path="url(#clipPath1)" fill="rgb(0,100,0)" width="10" stroke-dasharray="none" height="330" stroke="none"/>
<rect x="681" y="59" clip-path="url(#clipPath1)" fill="none" width="10" stroke-dasharray="none" height="330"/>
<rect x="666" y="60" clip-path="url(#clipPath1)" fill="rgb(238,0,0)" width="10" stroke-dasharray="none" height="329" stroke="none"/>
<rect x="666" y="60" clip-path="url(#clipPath1)" fill="none" width="10" stroke-dasharray="none" height="329"/>
<rect x="650" y="67" clip-path="url(#clipPath1)" fill="rgb(0,0,139)" width="10" stroke-dasharray="none" height="322" stroke="none"/>
<rect x="650" y="67" clip-path="url(#clipPath1)" fill="none" width="10" stroke-dasharray="none" height="322"/>
<rect x="611" y="68" clip-path="url(#clipPath1)" fill="teal" width="10" stroke-dasharray="none" height="321" stroke="none"/>
<rect x="611" y="68" clip-path="url(#clipPath1)" fill="none" width="10" stroke-dasharray="none" height="321"/>
<rect x="595" y="76" clip-path="url(#clipPath1)" fill="rgb(160,0,0)" width="10" stroke-dasharray="none" height="313" stroke="none"/>
<rect x="595" y="76" clip-path="url(#clipPath1)" fill="none" width="10" stroke-dasharray="none" height="313"/>
<rect x="580" y="71" clip-path="url(#clipPath1)" fill="rgb(169,169,169)" width="10" stroke-dasharray="none" height="318" stroke="none"/>
<rect x="580" y="71" clip-path="url(#clipPath1)" fill="none" width="10" stroke-dasharray="none" height="318"/>
<rect x="564" y="92" clip-path="url(#clipPath1)" fill="green" width="10" stroke-dasharray="none" height="297" stroke="none"/>
<rect x="564" y="92" clip-path="url(#clipPath1)" fill="none" width="10" stroke-dasharray="none" height="297"/>
<rect x="549" y="66" clip-path="url(#clipPath1)" fill="rgb(255,165,0)" width="10" stroke-dasharray="none" height="323" stroke="none"/>
<rect x="549" y="66" clip-path="url(#clipPath1)" fill="none" width="10" stroke-dasharray="none" height="323"/>
<rect x="533" y="63" clip-path="url(#clipPath1)" fill="rgb(0,100,0)" width="10" stroke-dasharray="none" height="326" stroke="none"/>
<rect x="533" y="63" clip-path="url(#clipPath1)" fill="none" width="10" stroke-dasharray="none" height="326"/>
<rect x="518" y="65" clip-path="url(#clipPath1)" fill="rgb(238,0,0)" width="10" stroke-dasharray="none" height="324" stroke="none"/>
<rect x="518" y="65" clip-path="url(#clipPath1)" fill="none" width="10" stroke-dasharray="none" height="324"/>
<rect x="502" y="71" clip-path="url(#clipPath1)" fill="rgb(0,0,139)" width="10" stroke-dasharray="none" height="318" stroke="none"/>
<rect x="502" y="71" clip-path="url(#clipPath1)" fill="none" width="10" stroke-dasharray="none" height="318"/>
<rect x="462" y="64" clip-path="url(#clipPath1)" fill="teal" width="10" stroke-dasharray="none" height="325" stroke="none"/>
<rect x="462" y="64" clip-path="url(#clipPath1)" fill="none" width="10" stroke-dasharray="none" height="325"/>
<rect x="447" y="69" clip-path="url(#clipPath1)" fill="rgb(160,0,0)" width="10" stroke-dasharray="none" height="320" stroke="none"/>
<rect x="447" y="69" clip-path="url(#clipPath1)" fill="none" width="10" stroke-dasharray="none" height="320"/>
<rect x="431" y="69" clip-path="url(#clipPath1)" fill="rgb(169,169,169)" width="10" stroke-dasharray="none" height="320" stroke="none"/>
<rect x="431" y="69" clip-path="url(#clipPath1)" fill="none" width="10" stroke-dasharray="none" height="320"/>
<rect x="416" y="75" clip-path="url(#clipPath1)" fill="green" width="10" stroke-dasharray="none" height="314" stroke="none"/>
<rect x="416" y="75" clip-path="url(#clipPath1)" fill="none" width="10" stroke-dasharray="none" height="314"/>
<rect x="401" y="59" clip-path="url(#clipPath1)" fill="rgb(255,165,0)" width="10" stroke-dasharray="none" height="330" stroke="none"/>
<rect x="401" y="59" clip-path="url(#clipPath1)" fill="none" width="10" stroke-dasharray="none" height="330"/>
<rect x="385" y="64" clip-path="url(#clipPath1)" fill="rgb(0,100,0)" width="10" stroke-dasharray="none" height="325" stroke="none"/>
<rect x="385" y="64" clip-path="url(#clipPath1)" fill="none" width="10" stroke-dasharray="none" height="325"/>
<rect x="370" y="61" clip-path="url(#clipPath1)" fill="rgb(238,0,0)" width="10" stroke-dasharray="none" height="328" stroke="none"/>
<rect x="370" y="61" clip-path="url(#clipPath1)" fill="none" width="10" stroke-dasharray="none" height="328"/>
<rect x="354" y="65" clip-path="url(#clipPath1)" fill="rgb(0,0,139)" width="10" stroke-dasharray="none" height="324" stroke="none"/>
<rect x="354" y="65" clip-path="url(#clipPath1)" fill="none" width="10" stroke-dasharray="none" height="324"/>
<rect x="314" y="64" clip-path="url(#clipPath1)" fill="teal" width="10" stroke-dasharray="none" height="325" stroke="none"/>
<rect x="314" y="64" clip-path="url(#clipPath1)" fill="none" width="10" stroke-dasharray="none" height="325"/>
<rect x="299" y="62" clip-path="url(#clipPath1)" fill="rgb(160,0,0)" width="10" stroke-dasharray="none" height="327" stroke="none"/>
<rect x="299" y="62" clip-path="url(#clipPath1)" fill="none" width="10" stroke-dasharray="none" height="327"/>
<rect x="283" y="63" clip-path="url(#clipPath1)" fill="rgb(169,169,169)" width="10" stroke-dasharray="none" height="326" stroke="none"/>
<rect x="283" y="63" clip-path="url(#clipPath1)" fill="none" width="10" stroke-dasharray="none" height="326"/>
<rect x="268" y="70" clip-path="url(#clipPath1)" fill="green" width="10" stroke-dasharray="none" height="319" stroke="none"/>
<rect x="268" y="70" clip-path="url(#clipPath1)" fill="none" width="10" stroke-dasharray="none" height="319"/>
<rect x="252" y="61" clip-path="url(#clipPath1)" fill="rgb(255,165,0)" width="10" stroke-dasharray="none" height="328" stroke="none"/>
<rect x="252" y="61" clip-path="url(#clipPath1)" fill="none" width="10" stroke-dasharray="none" height="328"/>
<rect x="237" y="59" clip-path="url(#clipPath1)" fill="rgb(0,100,0)" width="10" stroke-dasharray="none" height="330" stroke="none"/>
<rect x="237" y="59" clip-path="url(#clipPath1)" fill="none" width="10" stroke-dasharray="none" height="330"/>
<rect x="221" y="60" clip-path="url(#clipPath1)" fill="rgb(238,0,0)" width="10" stroke-dasharray="none" height="329" stroke="none"/>
<rect x="221" y="60" clip-path="url(#clipPath1)" fill="none" width="10" stroke-dasharray="none" height="329"/>
<rect x="206" y="64" clip-path="url(#clipPath1)" fill="rgb(0,0,139)" width="10" stroke-dasharray="none" height="325" stroke="none"/>
<rect x="206" y="64" clip-path="url(#clipPath1)" fill="none" width="10" stroke-dasharray="none" height="325"/>
<rect x="166" y="65" clip-path="url(#clipPath1)" fill="teal" width="10" stroke-dasharray="none" height="324" stroke="none"/>
<rect x="166" y="65" clip-path="url(#clipPath1)" fill="none" width="10" stroke-dasharray="none" height="324"/>
<rect x="151" y="80" clip-path="url(#clipPath1)" fill="rgb(160,0,0)" width="10" stroke-dasharray="none" height="309" stroke="none"/>
<rect x="151" y="80" clip-path="url(#clipPath1)" fill="none" width="10" stroke-dasharray="none" height="309"/>
<rect x="135" y="69" clip-path="url(#clipPath1)" fill="rgb(169,169,169)" width="10" stroke-dasharray="none" height="320" stroke="none"/>
<rect x="135" y="69" clip-path="url(#clipPath1)" fill="none" width="10" stroke-dasharray="none" height="320"/>
<rect x="120" y="82" clip-path="url(#clipPath1)" fill="green" width="10" stroke-dasharray="none" height="307" stroke="none"/>
<rect x="120" y="82" clip-path="url(#clipPath1)" fill="none" width="10" stroke-dasharray="none" height="307"/>
<rect x="104" y="61" clip-path="url(#clipPath1)" fill="rgb(255,165,0)" width="10" stroke-dasharray="none" height="328" stroke="none"/>
<rect x="104" y="61" clip-path="url(#clipPath1)" fill="none" width="10" stroke-dasharray="none" height="328"/>
<rect x="89" y="63" clip-path="url(#clipPath1)" fill="rgb(0,100,0)" width="10" stroke-dasharray="none" height="326" stroke="none"/>
<rect x="89" y="63" clip-path="url(#clipPath1)" fill="none" width="10" stroke-dasharray="none" height="326"/>
<rect x="73" y="63" clip-path="url(#clipPath1)" fill="rgb(238,0,0)" width="10" stroke-dasharray="none" height="326" stroke="none"/>
<rect x="73" y="63" clip-path="url(#clipPath1)" fill="none" width="10" stroke-dasharray="none" height="326"/>
<rect x="58" y="65" clip-path="url(#clipPath1)" fill="rgb(0,0,139)" width="10" stroke-dasharray="none" height="324" stroke="none"/>
<rect x="58" y="65" clip-path="url(#clipPath1)" fill="none" width="10" stroke-dasharray="none" height="324"/>
<rect x="48" y="26" clip-path="url(#clipPath2)" fill="none" width="880" stroke-dasharray="none" height="364" stroke="black"/>
<line clip-path="url(#clipPath2)" fill="none" x1="49" x2="927" y1="390" y2="390" stroke-dasharray="none"/>
</g>
<g text-rendering="geometricPrecision" font-size="13" font-family="'Arial'" stroke-linecap="butt">
<text xml:space="preserve" x="378" y="12" clip-path="url(#clipPath2)" stroke="none">Izgubna konfiguracija (procesiranje)</text>
<rect x="52" y="547" clip-path="url(#clipPath3)" fill="white" width="856" height="24" stroke="none"/>
<rect x="62" y="556" clip-path="url(#clipPath3)" fill="rgb(0,0,139)" width="7" height="7" stroke="none"/>
<text x="74" font-size="11" y="563" clip-path="url(#clipPath3)" stroke="none" xml:space="preserve">$i=3, $p=5, $q=1</text>
<rect x="169" y="556" clip-path="url(#clipPath3)" fill="rgb(238,0,0)" width="7" height="7" stroke="none"/>
<text x="181" font-size="11" y="563" clip-path="url(#clipPath3)" stroke="none" xml:space="preserve">$i=3, $p=5, $q=6</text>
<rect x="276" y="556" clip-path="url(#clipPath3)" fill="rgb(0,100,0)" width="7" height="7" stroke="none"/>
<text x="288" font-size="11" y="563" clip-path="url(#clipPath3)" stroke="none" xml:space="preserve">$i=3, $p=7, $q=1</text>
<rect x="383" y="556" clip-path="url(#clipPath3)" fill="rgb(255,165,0)" width="7" height="7" stroke="none"/>
<text x="395" font-size="11" y="563" clip-path="url(#clipPath3)" stroke="none" xml:space="preserve">$i=3, $p=7, $q=6</text>
<rect x="490" y="556" clip-path="url(#clipPath3)" fill="green" width="7" height="7" stroke="none"/>
<text x="502" font-size="11" y="563" clip-path="url(#clipPath3)" stroke="none" xml:space="preserve">$i=5, $p=5, $q=1</text>
<rect x="597" y="556" clip-path="url(#clipPath3)" fill="rgb(169,169,169)" width="7" height="7" stroke="none"/>
<text x="609" font-size="11" y="563" clip-path="url(#clipPath3)" stroke="none" xml:space="preserve">$i=5, $p=5, $q=6</text>
<rect x="704" y="556" clip-path="url(#clipPath3)" fill="rgb(160,0,0)" width="7" height="7" stroke="none"/>
<text x="716" font-size="11" y="563" clip-path="url(#clipPath3)" stroke="none" xml:space="preserve">$i=5, $p=7, $q=1</text>
<rect x="811" y="556" clip-path="url(#clipPath3)" fill="teal" width="7" height="7" stroke="none"/>
<text x="823" font-size="11" y="563" clip-path="url(#clipPath3)" stroke="none" xml:space="preserve">$i=5, $p=7, $q=6</text>
<line clip-path="url(#clipPath2)" fill="none" x1="46" x2="46" y1="26" y2="390"/>
<line clip-path="url(#clipPath2)" fill="none" x1="930" x2="930" y1="26" y2="390"/>
<line clip-path="url(#clipPath2)" fill="none" x1="42" x2="46" y1="390" y2="390"/>
<line clip-path="url(#clipPath2)" fill="none" x1="934" x2="930" y1="390" y2="390"/>
<text x="36" font-size="11" y="394" clip-path="url(#clipPath2)" stroke="none" xml:space="preserve">0</text>
<text x="937" font-size="11" y="394" clip-path="url(#clipPath2)" stroke="none" xml:space="preserve">0</text>
<line clip-path="url(#clipPath2)" fill="none" x1="44" x2="46" y1="356" y2="356"/>
<line clip-path="url(#clipPath2)" fill="none" x1="932" x2="930" y1="356" y2="356"/>
<line clip-path="url(#clipPath2)" fill="none" x1="42" x2="46" y1="322" y2="322"/>
<line clip-path="url(#clipPath2)" fill="none" x1="934" x2="930" y1="322" y2="322"/>
<text x="31" font-size="11" y="326" clip-path="url(#clipPath2)" stroke="none" xml:space="preserve">20</text>
<text x="937" font-size="11" y="326" clip-path="url(#clipPath2)" stroke="none" xml:space="preserve">20</text>
<line clip-path="url(#clipPath2)" fill="none" x1="44" x2="46" y1="288" y2="288"/>
<line clip-path="url(#clipPath2)" fill="none" x1="932" x2="930" y1="288" y2="288"/>
<line clip-path="url(#clipPath2)" fill="none" x1="42" x2="46" y1="254" y2="254"/>
<line clip-path="url(#clipPath2)" fill="none" x1="934" x2="930" y1="254" y2="254"/>
<text x="31" font-size="11" y="258" clip-path="url(#clipPath2)" stroke="none" xml:space="preserve">40</text>
<text x="937" font-size="11" y="258" clip-path="url(#clipPath2)" stroke="none" xml:space="preserve">40</text>
<line clip-path="url(#clipPath2)" fill="none" x1="44" x2="46" y1="220" y2="220"/>
<line clip-path="url(#clipPath2)" fill="none" x1="932" x2="930" y1="220" y2="220"/>
<line clip-path="url(#clipPath2)" fill="none" x1="42" x2="46" y1="186" y2="186"/>
<line clip-path="url(#clipPath2)" fill="none" x1="934" x2="930" y1="186" y2="186"/>
<text x="31" font-size="11" y="190" clip-path="url(#clipPath2)" stroke="none" xml:space="preserve">60</text>
<text x="937" font-size="11" y="190" clip-path="url(#clipPath2)" stroke="none" xml:space="preserve">60</text>
<line clip-path="url(#clipPath2)" fill="none" x1="44" x2="46" y1="153" y2="153"/>
<line clip-path="url(#clipPath2)" fill="none" x1="932" x2="930" y1="153" y2="153"/>
<line clip-path="url(#clipPath2)" fill="none" x1="42" x2="46" y1="119" y2="119"/>
<line clip-path="url(#clipPath2)" fill="none" x1="934" x2="930" y1="119" y2="119"/>
<text x="31" font-size="11" y="123" clip-path="url(#clipPath2)" stroke="none" xml:space="preserve">80</text>
<text x="937" font-size="11" y="123" clip-path="url(#clipPath2)" stroke="none" xml:space="preserve">80</text>
<line clip-path="url(#clipPath2)" fill="none" x1="44" x2="46" y1="85" y2="85"/>
<line clip-path="url(#clipPath2)" fill="none" x1="932" x2="930" y1="85" y2="85"/>
<line clip-path="url(#clipPath2)" fill="none" x1="42" x2="46" y1="51" y2="51"/>
<line clip-path="url(#clipPath2)" fill="none" x1="934" x2="930" y1="51" y2="51"/>
<text x="26" font-size="11" y="55" clip-path="url(#clipPath2)" stroke="none" xml:space="preserve">100</text>
<text x="937" font-size="11" y="55" clip-path="url(#clipPath2)" stroke="none" xml:space="preserve">100</text>
<line clip-path="url(#clipPath4)" fill="none" x1="58" x2="176" y1="394" y2="394"/>
<line clip-path="url(#clipPath4)" fill="none" x1="206" x2="324" y1="394" y2="394"/>
<line clip-path="url(#clipPath4)" fill="none" x1="354" x2="472" y1="394" y2="394"/>
<line clip-path="url(#clipPath4)" fill="none" x1="502" x2="621" y1="394" y2="394"/>
<line clip-path="url(#clipPath4)" fill="none" x1="650" x2="769" y1="394" y2="394"/>
<line clip-path="url(#clipPath4)" fill="none" x1="799" x2="917" y1="394" y2="394"/>
<text x="112" font-size="11" y="413" clip-path="url(#clipPath4)" stroke="none" xml:space="preserve">Omrezje.router</text>
<text x="260" font-size="11" y="406" clip-path="url(#clipPath4)" stroke="none" xml:space="preserve">Omrezje.router1</text>
<text x="408" font-size="11" y="406" clip-path="url(#clipPath4)" stroke="none" xml:space="preserve">Omrezje.router2</text>
<text x="556" font-size="11" y="406" clip-path="url(#clipPath4)" stroke="none" xml:space="preserve">Omrezje.router3</text>
<text x="704" font-size="11" y="406" clip-path="url(#clipPath4)" stroke="none" xml:space="preserve">Omrezje.router4</text>
<text x="853" font-size="11" y="406" clip-path="url(#clipPath4)" stroke="none" xml:space="preserve">Omrezje.router5</text>
</g>
</g>
</svg>
